<?xml version="1.0" encoding="UTF-8"?>
<svg id="Layer_1" data-name="Layer 1" xmlns="http://www.w3.org/2000/svg" xmlns:xlink="http://www.w3.org/1999/xlink" viewBox="0 0 1132.47 1727.22">
  <defs>
    <style>
      .cls-1 {
        fill: #231f20;
      }

      .cls-1, .cls-2 {
        stroke-width: 0px;
      }

      .cls-3 {
        clip-path: url(#clippath-2);
      }

      .cls-4 {
        clip-path: url(#clippath-6);
      }

      .cls-2, .cls-5, .cls-6, .cls-7, .cls-8 {
        fill: none;
      }

      .cls-9 {
        clip-path: url(#clippath-7);
      }

      .cls-10 {
        clip-path: url(#clippath-1);
      }

      .cls-11 {
        clip-path: url(#clippath-4);
      }

      .cls-5 {
        stroke-width: 5.34px;
      }

      .cls-5, .cls-6, .cls-7, .cls-8 {
        stroke: #231f20;
        stroke-miterlimit: 10;
      }

      .cls-12 {
        clip-path: url(#clippath);
      }

      .cls-6 {
        stroke-width: 4.05px;
      }

      .cls-13 {
        clip-path: url(#clippath-3);
      }

      .cls-14 {
        clip-path: url(#clippath-8);
      }

      .cls-15 {
        clip-path: url(#clippath-5);
      }

      .cls-7 {
        stroke-width: 5.23px;
      }

      .cls-8 {
        stroke-width: 4.85px;
      }
    </style>
    <clipPath id="clippath">
      <rect class="cls-2" x="77.16" y="0" width="211.05" height="293.19"/>
    </clipPath>
    <clipPath id="clippath-1">
      <rect class="cls-2" x="440.11" y="0" width="131.07" height="293.19"/>
    </clipPath>
    <clipPath id="clippath-2">
      <rect class="cls-2" x="715.59" y="0" width="258.09" height="293.19"/>
    </clipPath>
    <clipPath id="clippath-3">
      <rect class="cls-2" x="523.65" y="680.74" width="564.09" height="333.15"/>
    </clipPath>
    <clipPath id="clippath-4">
      <rect class="cls-2" x="47.7" y="680.74" width="437.07" height="333.16"/>
    </clipPath>
    <clipPath id="clippath-5">
      <rect class="cls-2" y="1322.73" width="321.43" height="359.96"/>
    </clipPath>
    <clipPath id="clippath-6">
      <rect class="cls-2" x="379.63" y="1278.2" width="320.55" height="449.01"/>
    </clipPath>
    <clipPath id="clippath-7">
      <rect class="cls-2" x="379.63" y="1278.2" width="320.55" height="449.01"/>
    </clipPath>
    <clipPath id="clippath-8">
      <rect class="cls-2" x="700.18" y="1428.59" width="432.3" height="298.63"/>
    </clipPath>
  </defs>
  <g class="cls-12">
    <path class="cls-1" d="M288.21,187.66c0,58.28-47.24,105.52-105.52,105.52s-105.52-47.24-105.52-105.52,47.24-105.52,105.52-105.52,105.52,47.24,105.52,105.52"/>
    <polyline class="cls-1" points="98.36 124.22 186.31 0 267.01 124.22"/>
  </g>
  <polygon class="cls-1" points="440.11 65.33 505.65 293.19 571.18 65.33 440.11 65.33"/>
  <g class="cls-10">
    <path class="cls-1" d="M539,33.36c0,18.42-14.94,33.36-33.36,33.36s-33.35-14.94-33.35-33.36S487.23,0,505.65,0s33.36,14.94,33.36,33.36"/>
  </g>
  <g class="cls-3">
    <path class="cls-1" d="M715.59,6.42v285.77h174.77l-11.37-47.96-37.57-6.18-26.95-29.67,45.24-23.49s-5.32-10.88-6-12.36c-.68-1.48-32.82-18.05-32.82-18.05l-1.73-8.9s4.7-9.89,4.2-10.63c-.5-.74-8.9-10.88-8.9-10.88l-1.73-24.72-20.52-15.82,5.44-24.97-16.56-12.36-1.98-12.61-41.04-24.72-22.5-2.47Z"/>
    <polygon class="cls-1" points="890.37 292.2 899.51 253.88 908.66 237.57 891.6 205.18 895.81 190.6 910.14 180.46 916.08 168.1 912.37 149.32 893.33 134.23 908.66 113.22 907.42 99.13 916.08 85.29 914.59 61.8 921.02 41.29 923 16.81 929.67 9.64 947.23 2.47 968.24 3.96 973.68 0 973.68 293.19 890.37 292.2"/>
  </g>
  <g class="cls-13">
    <path class="cls-1" d="M806.13,1013.56c-3.71,0-6.71.02-9.72,0-5.44-.04-10.86-.48-16.28-1-2.8-.27-5.61-.41-8.41-.7-3.45-.36-6.9-.75-10.33-1.26-7.05-1.04-14.07-2.27-21.04-3.73-14.53-3.05-28.77-7.13-42.72-12.2-12.46-4.52-24.59-9.79-36.37-15.85-15.55-8.01-30.42-17.12-44.5-27.51-10.81-7.98-21.11-16.56-30.95-25.72-13.43-12.51-25.64-26.11-36.9-40.58-8.31-10.69-15.88-21.87-22.89-33.44-.44-.72-.8-1.5-1.3-2.17-1.06-1.41-.88-2.71.03-4.13,1.58-2.45,3.02-4.98,4.58-7.43,7.99-12.63,16.66-24.76,26.17-36.29,8.37-10.15,17.29-19.79,26.74-28.94,11.35-10.99,23.44-21.1,36.22-30.37,14.93-10.82,30.66-20.34,47.2-28.48,21.39-10.51,43.66-18.57,66.86-24.08,8.39-2,16.85-3.7,25.39-4.89,5.1-.72,10.2-1.56,15.32-2.03,3.26-.3,6.56-.48,9.8-.84,5.43-.62,10.87-.33,16.3-.76,4.85-.39,9.75-.39,14.62.15.56.06,1.13.13,1.69.11,5.17-.19,10.31.41,15.45.68,2.9.15,5.77.67,8.66.92,3.27.28,6.52.74,9.77,1.17,6.14.8,12.23,1.85,18.3,3.07,14.08,2.84,27.93,6.59,41.5,11.31,14.83,5.15,29.19,11.4,43.11,18.65,19.29,10.06,37.36,21.97,54.3,35.62,11.64,9.38,22.63,19.47,32.9,30.32,11.83,12.49,22.73,25.75,32.57,39.88,4.67,6.7,9.15,13.53,13.35,20.54.29.48.52,1.01.87,1.44,1.31,1.64,1.04,3.12,0,4.86-9.53,15.89-20.16,30.99-32.05,45.21-5.06,6.05-10.35,11.89-15.79,17.61-21.46,22.5-45.61,41.58-72.41,57.31-20.48,12.03-42.04,21.64-64.66,28.85-12.44,3.97-25.08,7.15-37.92,9.52-6.82,1.26-13.68,2.26-20.57,3.09-4.65.56-9.34.81-13.98,1.45-.27.04-.56.04-.84.05-7.6.29-15.18.95-22.08.61M805.76,711.41c-37.31.53-69.64,13.47-96.1,39.98-26.14,26.19-39.49,58.13-39.73,95.14-.24,37.56,13.06,70.02,39.49,96.65,26.13,26.33,58.2,39.37,95.26,40.19,37.27-.3,69.63-12.97,96.23-39.18,26.93-26.52,40.07-59.07,40.71-96.77-.57-37.28-13.47-69.58-39.85-96.01-26.37-26.41-58.59-39.43-96.01-40"/>
    <path class="cls-1" d="M805.55,951.7c-55.46.31-104.18-44.86-104.25-104.35-.04-28.64,10.38-53.41,30.62-73.67,20.32-20.34,45.24-30.23,73.93-30.74,28.47.62,53.16,10.43,73.42,30.59,20.5,20.41,30.39,45.36,30.95,74.15-.66,28.48-10.53,53.21-30.75,73.39-20.35,20.31-45.18,30.33-73.91,30.63"/>
  </g>
  <g class="cls-11">
    <path class="cls-1" d="M228.78,923.36c0-50-40.53-90.54-90.54-90.54s-90.54,40.53-90.54,90.54,40.53,90.54,90.54,90.54,90.54-40.53,90.54-90.54"/>
    <path class="cls-1" d="M484.77,923.36c0-50-40.53-90.54-90.54-90.54s-90.54,40.53-90.54,90.54,40.53,90.54,90.54,90.54,90.54-40.53,90.54-90.54"/>
    <polyline class="cls-5" points="394.24 873.86 111.92 873.86 247.51 718.65"/>
    <path class="cls-1" d="M277.83,718.65c0,20.94-16.97,37.91-37.91,37.91s-37.91-16.97-37.91-37.91,16.97-37.91,37.91-37.91,37.91,16.97,37.91,37.91"/>
    <polyline class="cls-5" points="261.78 869.4 338.49 784.66 428.58 784.66"/>
  </g>
  <g class="cls-15">
    <line class="cls-6" x1="8.27" y1="1331" x2="8.27" y2="1674.42"/>
    <line class="cls-6" x1="55.59" y1="1331" x2="55.59" y2="1674.42"/>
    <line class="cls-6" x1="94.13" y1="1331" x2="94.13" y2="1674.42"/>
    <line class="cls-6" x1="141.45" y1="1331" x2="141.45" y2="1674.42"/>
    <line class="cls-6" x1="179.98" y1="1331" x2="179.98" y2="1674.42"/>
    <line class="cls-6" x1="227.3" y1="1331" x2="227.3" y2="1674.42"/>
    <line class="cls-6" x1="265.84" y1="1331" x2="265.84" y2="1674.42"/>
    <line class="cls-6" x1="313.16" y1="1331" x2="313.16" y2="1674.42"/>
  </g>
  <g class="cls-4">
    <path class="cls-8" d="M395.22,1717.3v-284.49s-5.67-144.68,144.68-144.68,139.81,139.82,139.81,139.82"/>
  </g>
  <line class="cls-8" x1="603.53" y1="1331.49" x2="438.99" y2="1418.21"/>
  <line class="cls-8" x1="632.7" y1="1357.42" x2="424.4" y2="1469.28"/>
  <line class="cls-8" x1="653.78" y1="1387.41" x2="434.94" y2="1516.29"/>
  <g class="cls-9">
    <line class="cls-8" x1="564.62" y1="1310.41" x2="452.77" y2="1363.1"/>
  </g>
  <g class="cls-14">
    <line class="cls-7" x1="709.03" y1="1714.3" x2="1123.61" y2="1714.3"/>
    <path class="cls-7" d="M869.65,1683.69s-.72-46.96,32.2-46.96,32.2,46.96,32.2,46.96"/>
    <path class="cls-7" d="M813.7,1683.69s-2.09-135.6,92.97-135.6,92.97,135.6,92.97,135.6"/>
    <path class="cls-7" d="M750.28,1683.69s-3.73-242.19,166.05-242.19,166.05,242.19,166.05,242.19"/>
  </g>
</svg>